<svg width="226" height="35" viewBox="0 0 226 35" fill="none" xmlns="http://www.w3.org/2000/svg">
<path d="M6.52344 34H1.13281C0.976562 34 0.898438 33.9219 0.898438 33.7656L0.992188 0.789062C0.992188 0.664062 1.05469 0.601562 1.17969 0.601562H16.5547C16.7109 0.601562 16.7891 0.664062 16.7891 0.789062V6.20312C16.7891 6.32812 16.7266 6.39062 16.6016 6.39062H6.75781V13.8438H16.6016C16.7266 13.8438 16.7891 13.9219 16.7891 14.0781L16.8359 19.5156C16.8359 19.6406 16.7578 19.7031 16.6016 19.7031H6.75781V33.7656C6.75781 33.9219 6.67969 34 6.52344 34ZM41.6047 34H26.0891C25.9641 34 25.9016 33.9219 25.9016 33.7656L25.9484 0.835938C25.9484 0.679688 26.0266 0.601562 26.1828 0.601562H31.5266C31.6828 0.601562 31.7609 0.679688 31.7609 0.835938L31.7141 28.0938H41.6047C41.7609 28.0938 41.8391 28.1719 41.8391 28.3281V33.7656C41.8391 33.9219 41.7609 34 41.6047 34ZM55.4516 34H50.0141C49.8578 34 49.7797 33.9219 49.7797 33.7656L49.8266 0.789062C49.8266 0.664062 49.8891 0.601562 50.0141 0.601562H55.4047C55.5297 0.601562 55.5922 0.664062 55.5922 0.789062L55.6391 33.7656C55.6391 33.9219 55.5766 34 55.4516 34ZM73.4938 34.4688C71.7594 34.4688 70.1734 34.0312 68.7359 33.1562C67.3141 32.2812 66.1813 31.1094 65.3375 29.6406C64.5094 28.1562 64.0953 26.5078 64.0953 24.6953L64.1422 9.71875C64.1422 7.9375 64.5484 6.32812 65.3609 4.89062C66.1734 3.4375 67.2906 2.27344 68.7125 1.39844C70.15 0.507812 71.7438 0.0625 73.4938 0.0625C75.275 0.0625 76.8609 0.492188 78.2516 1.35156C79.6578 2.21094 80.775 3.375 81.6031 4.84375C82.4469 6.29688 82.8688 7.92188 82.8688 9.71875V11.9219C82.8688 12.0469 82.8063 12.1094 82.6813 12.1094H77.2906C77.1656 12.1094 77.1031 12.0469 77.1031 11.9219V9.71875C77.1031 8.65625 76.7594 7.74219 76.0719 6.97656C75.3844 6.21094 74.525 5.82812 73.4938 5.82812C72.3531 5.82812 71.4781 6.21875 70.8688 7C70.2594 7.78125 69.9547 8.6875 69.9547 9.71875V24.6953C69.9547 25.8672 70.2984 26.8281 70.9859 27.5781C71.6734 28.3125 72.5094 28.6797 73.4938 28.6797C74.525 28.6797 75.3844 28.2734 76.0719 27.4609C76.7594 26.6328 77.1031 25.7109 77.1031 24.6953V22.4688C77.1031 22.3438 77.1656 22.2812 77.2906 22.2812H82.7281C82.8531 22.2812 82.9156 22.3438 82.9156 22.4688V24.6953C82.9156 26.4922 82.4938 28.1328 81.65 29.6172C80.7906 31.0859 79.6578 32.2656 78.2516 33.1562C76.8453 34.0312 75.2594 34.4688 73.4938 34.4688ZM96.8328 34H91.3953C91.2703 34 91.2078 33.9219 91.2078 33.7656L91.3016 0.835938C91.3016 0.679688 91.3641 0.601562 91.4891 0.601562H96.8797C97.0047 0.601562 97.0672 0.679688 97.0672 0.835938V12.2031L104.591 0.789062C104.716 0.664062 104.833 0.601562 104.942 0.601562H110.45C110.591 0.601562 110.622 0.664062 110.544 0.789062L102.247 14.0312L111.552 33.8125C111.63 33.9375 111.552 34 111.317 34H105.458C105.302 34 105.208 33.9375 105.177 33.8125L98.6844 19.7031L97.0203 22.3281V33.7656C97.0203 33.9219 96.9578 34 96.8328 34ZM124.133 34H118.742C118.586 34 118.508 33.9219 118.508 33.7656L118.602 0.789062C118.602 0.664062 118.664 0.601562 118.789 0.601562H134.164C134.32 0.601562 134.398 0.664062 134.398 0.789062V6.20312C134.398 6.32812 134.336 6.39062 134.211 6.39062H124.367V13.8438H134.211C134.336 13.8438 134.398 13.9219 134.398 14.0781L134.445 19.5156C134.445 19.6406 134.367 19.7031 134.211 19.7031H124.367V33.7656C124.367 33.9219 124.289 34 124.133 34ZM150.472 34.4688C148.769 34.4688 147.198 34.0312 145.761 33.1562C144.339 32.2812 143.191 31.1172 142.316 29.6641C141.456 28.1953 141.027 26.5859 141.027 24.8359L141.073 9.625C141.073 7.84375 141.503 6.24219 142.363 4.82031C143.206 3.38281 144.347 2.23438 145.784 1.375C147.222 0.5 148.784 0.0625 150.472 0.0625C152.222 0.0625 153.792 0.492188 155.183 1.35156C156.589 2.21094 157.714 3.36719 158.558 4.82031C159.417 6.25781 159.847 7.85938 159.847 9.625L159.894 24.8359C159.894 26.5859 159.472 28.1875 158.628 29.6406C157.769 31.1094 156.628 32.2812 155.206 33.1562C153.784 34.0312 152.206 34.4688 150.472 34.4688ZM150.472 28.6797C151.441 28.6797 152.284 28.2891 153.003 27.5078C153.722 26.7109 154.081 25.8203 154.081 24.8359L154.034 9.625C154.034 8.5625 153.698 7.66406 153.027 6.92969C152.355 6.19531 151.503 5.82812 150.472 5.82812C149.488 5.82812 148.644 6.1875 147.941 6.90625C147.238 7.625 146.886 8.53125 146.886 9.625V24.8359C146.886 25.8828 147.238 26.7891 147.941 27.5547C148.644 28.3047 149.488 28.6797 150.472 28.6797ZM184.03 34H168.514C168.389 34 168.327 33.9219 168.327 33.7656L168.373 0.835938C168.373 0.679688 168.452 0.601562 168.608 0.601562H173.952C174.108 0.601562 174.186 0.679688 174.186 0.835938L174.139 28.0938H184.03C184.186 28.0938 184.264 28.1719 184.264 28.3281V33.7656C184.264 33.9219 184.186 34 184.03 34ZM197.877 34H192.439C192.283 34 192.205 33.9219 192.205 33.7656L192.252 0.789062C192.252 0.664062 192.314 0.601562 192.439 0.601562H197.83C197.955 0.601562 198.017 0.664062 198.017 0.789062L198.064 33.7656C198.064 33.9219 198.002 34 197.877 34ZM215.966 34.4688C214.262 34.4688 212.692 34.0312 211.255 33.1562C209.833 32.2812 208.684 31.1172 207.809 29.6641C206.95 28.1953 206.52 26.5859 206.52 24.8359L206.567 9.625C206.567 7.84375 206.997 6.24219 207.856 4.82031C208.7 3.38281 209.841 2.23438 211.278 1.375C212.716 0.5 214.278 0.0625 215.966 0.0625C217.716 0.0625 219.286 0.492188 220.677 1.35156C222.083 2.21094 223.208 3.36719 224.052 4.82031C224.911 6.25781 225.341 7.85938 225.341 9.625L225.387 24.8359C225.387 26.5859 224.966 28.1875 224.122 29.6406C223.262 31.1094 222.122 32.2812 220.7 33.1562C219.278 34.0312 217.7 34.4688 215.966 34.4688ZM215.966 28.6797C216.934 28.6797 217.778 28.2891 218.497 27.5078C219.216 26.7109 219.575 25.8203 219.575 24.8359L219.528 9.625C219.528 8.5625 219.192 7.66406 218.52 6.92969C217.848 6.19531 216.997 5.82812 215.966 5.82812C214.981 5.82812 214.137 6.1875 213.434 6.90625C212.731 7.625 212.38 8.53125 212.38 9.625V24.8359C212.38 25.8828 212.731 26.7891 213.434 27.5547C214.137 28.3047 214.981 28.6797 215.966 28.6797Z" fill="white"/>
</svg>
