<svg width="36" height="36" viewBox="0 0 36 36" fill="none" xmlns="http://www.w3.org/2000/svg">
<g clip-path="url(#clip0_14_315)">
<path d="M13.5 28.5C6 30.75 6 24.75 3 24M24 33V27.195C24.0563 26.4797 23.9596 25.7607 23.7165 25.0857C23.4734 24.4107 23.0894 23.7951 22.59 23.28C27.3 22.755 32.25 20.97 32.25 12.78C32.2496 10.6857 31.444 8.6718 30 7.155C30.6838 5.32276 30.6354 3.29752 29.865 1.5C29.865 1.5 28.095 0.975 24 3.72C20.562 2.78823 16.938 2.78823 13.5 3.72C9.405 0.975 7.635 1.5 7.635 1.5C6.86456 3.29752 6.81622 5.32276 7.5 7.155C6.04519 8.68305 5.23878 10.7152 5.25 12.825C5.25 20.955 10.2 22.74 14.91 23.325C14.4165 23.835 14.0359 24.4431 13.793 25.1099C13.55 25.7767 13.4502 26.4871 13.5 27.195V33" stroke="white" stroke-width="4" stroke-linecap="round" stroke-linejoin="round"/>
</g>
<defs>
<clipPath id="clip0_14_315">
<rect width="36" height="36" fill="white"/>
</clipPath>
</defs>
</svg>
