<svg width="95" height="95" viewBox="0 0 95 95" fill="none" xmlns="http://www.w3.org/2000/svg">
<g clip-path="url(#clip0_14_406)">
<path d="M47.5 95C73.7335 95 95 73.7335 95 47.5C95 21.2665 73.7335 0 47.5 0C21.2665 0 0 21.2665 0 47.5C0 73.7335 21.2665 95 47.5 95Z" fill="#F55B4B"/>
<path d="M12.8343 35.458H82.4144V75.564C82.4144 76.4005 82.082 77.2028 81.4905 77.7944C80.8989 78.3859 80.0966 78.7183 79.2601 78.7183H15.9886C15.152 78.7183 14.3497 78.3859 13.7581 77.7944C13.1666 77.2028 12.8343 76.4005 12.8343 75.564V35.458Z" fill="#32314B"/>
<path d="M82.4144 35.458V43.6221H23.455C22.0819 43.6221 20.7649 44.1674 19.7938 45.1382C18.8227 46.109 18.2769 47.4257 18.2764 48.7988V78.722H15.9904C15.1539 78.722 14.3516 78.3896 13.76 77.7981C13.1685 77.2066 12.8361 76.4042 12.8361 75.5677V35.458H82.4144Z" fill="#27273D"/>
<path d="M78.2841 66.8544C79.3498 66.8544 80.2138 65.9904 80.2138 64.9247C80.2138 63.859 79.3498 62.995 78.2841 62.995C77.2183 62.995 76.3544 63.859 76.3544 64.9247C76.3544 65.9904 77.2183 66.8544 78.2841 66.8544Z" fill="#3E436D"/>
<path d="M78.2841 62.2732C79.0393 62.2732 79.6516 61.661 79.6516 60.9058C79.6516 60.1505 79.0393 59.5383 78.2841 59.5383C77.5289 59.5383 76.9166 60.1505 76.9166 60.9058C76.9166 61.661 77.5289 62.2732 78.2841 62.2732Z" fill="#3E436D"/>
<path d="M81.5145 30.6264H13.7342C13.2372 30.6264 12.8343 31.0293 12.8343 31.5263V39.4677C12.8343 39.9647 13.2372 40.3676 13.7342 40.3676H81.5145C82.0115 40.3676 82.4144 39.9647 82.4144 39.4677V31.5263C82.4144 31.0293 82.0115 30.6264 81.5145 30.6264Z" fill="#3E436D"/>
<path d="M82.4144 38.4193V39.4677C82.4144 39.7063 82.3195 39.9352 82.1508 40.104C81.982 40.2728 81.7531 40.3676 81.5145 40.3676H13.7305C13.6121 40.3678 13.4949 40.3447 13.3855 40.2996C13.2761 40.2545 13.1767 40.1882 13.0929 40.1047C13.0092 40.0211 12.9427 39.9218 12.8974 39.8125C12.852 39.7032 12.8287 39.586 12.8287 39.4677V31.5263C12.8287 31.4079 12.852 31.2908 12.8974 31.1815C12.9427 31.0722 13.0092 30.9729 13.0929 30.8893C13.1767 30.8057 13.2761 30.7394 13.3855 30.6943C13.4949 30.6492 13.6121 30.6261 13.7305 30.6264H14.8697V37.5194C14.8697 37.6378 14.8931 37.7549 14.9384 37.8642C14.9837 37.9735 15.0502 38.0728 15.134 38.1564C15.2177 38.24 15.3171 38.3063 15.4265 38.3514C15.5359 38.3965 15.6531 38.4196 15.7715 38.4193H82.4144Z" fill="#32314B"/>
<path d="M26.9154 40.182H20.0372L25.1954 30.6264H32.0736L26.9154 40.182Z" fill="white"/>
<path d="M41.2953 40.3676H34.4171L39.5753 30.6264H46.4535L41.2953 40.3676Z" fill="white"/>
<path d="M55.6752 40.3676H48.797L53.9552 30.6264H60.8334L55.6752 40.3676Z" fill="white"/>
<path d="M70.0551 40.3676H63.1769L68.3351 30.6264H75.2133L70.0551 40.3676Z" fill="white"/>
<path d="M42.3251 38.4193L41.2935 40.3676H34.4171L35.4487 38.4193H42.3251Z" fill="#DDDDDD"/>
<path d="M56.705 38.4193L55.6733 40.3676H48.797L49.8286 38.4193H56.705Z" fill="#DDDDDD"/>
<path d="M71.0849 38.4193L70.0532 40.3676H63.1769L64.2085 38.4193H71.0849Z" fill="#DDDDDD"/>
<path d="M79.4705 4.8426L13.5273 20.516C13.0437 20.6309 12.7449 21.1161 12.8598 21.5996L14.6962 29.3258C14.8111 29.8093 15.2963 30.1081 15.7798 29.9932L81.723 14.3198C82.2066 14.2049 82.5054 13.7197 82.3905 13.2362L80.5541 5.51002C80.4392 5.02649 79.954 4.72767 79.4705 4.8426Z" fill="#3E436D"/>
<path d="M82.149 12.222L82.3902 13.2425C82.4455 13.4745 82.4063 13.7189 82.2814 13.9221C82.1565 14.1253 81.9561 14.2706 81.7241 14.3261L15.7808 29.9937C15.6656 30.0212 15.5462 30.0258 15.4292 30.0072C15.3123 29.9885 15.2002 29.947 15.0994 29.8849C14.9986 29.8229 14.911 29.7415 14.8416 29.6456C14.7723 29.5496 14.7226 29.4409 14.6953 29.3257L12.8602 21.5995C12.8329 21.4845 12.8285 21.3652 12.8473 21.2485C12.8661 21.1318 12.9077 21.02 12.9697 20.9193C13.0318 20.8187 13.113 20.7313 13.2088 20.6621C13.3047 20.5928 13.4132 20.5432 13.5282 20.5159L14.6415 20.2524L16.2335 26.96C16.2894 27.1921 16.435 27.3925 16.6385 27.5174C16.842 27.6423 17.0867 27.6813 17.3189 27.6261L82.149 12.222Z" fill="#32314B"/>
<path d="M28.6021 26.947L21.9094 28.5371L24.6777 17.8682L31.3686 16.278L28.6021 26.947Z" fill="white"/>
<path d="M42.5923 23.6238L35.9015 25.214L38.668 14.5432L45.3588 12.953L42.5923 23.6238Z" fill="white"/>
<path d="M56.5825 20.2988L49.8917 21.889L52.6582 11.22L59.349 9.62988L56.5825 20.2988Z" fill="white"/>
<path d="M70.5728 16.9757L63.8819 18.5658L66.6484 7.89502L73.3393 6.30488L70.5728 16.9757Z" fill="white"/>
<path d="M29.155 24.8132L28.602 26.947L21.9112 28.5371L22.4642 26.4033L29.155 24.8132Z" fill="#DDDDDD"/>
<path d="M43.1452 21.49L42.5923 23.6238L35.9015 25.2121L36.4544 23.0783L43.1452 21.49Z" fill="#DDDDDD"/>
<path d="M57.1354 18.165L56.5825 20.2988L49.8917 21.889L50.4446 19.7552L57.1354 18.165Z" fill="#DDDDDD"/>
<path d="M71.1257 14.8419L70.5728 16.9757L63.8819 18.5658L64.4349 16.4302L71.1257 14.8419Z" fill="#DDDDDD"/>
<path d="M30.9622 40.3676H16.6157C16.1456 40.3671 15.6949 40.18 15.3626 39.8474C15.0304 39.5148 14.8437 39.0639 14.8438 38.5937V24.019C14.8452 23.4557 15.0698 22.9159 15.4683 22.5178C15.8668 22.1196 16.4068 21.8955 16.9701 21.8945H23.2342C23.5891 21.8943 23.9385 21.9828 24.2506 22.152C24.5626 22.3211 24.8274 22.5656 25.021 22.8631L33.6359 36.0981C33.8567 36.5511 33.9586 37.0529 33.9319 37.5561C33.9052 38.0593 33.7508 38.5474 33.4834 38.9745C33.2159 39.4016 32.8441 39.7536 32.4031 39.9973C31.962 40.241 31.4661 40.3684 30.9622 40.3676Z" fill="#27273D"/>
<path d="M18.1817 38.1781C18.9329 38.1781 19.5418 37.5692 19.5418 36.8181C19.5418 36.0669 18.9329 35.458 18.1817 35.458C17.4306 35.458 16.8217 36.0669 16.8217 36.8181C16.8217 37.5692 17.4306 38.1781 18.1817 38.1781Z" fill="white"/>
<path d="M18.1817 26.6742C18.9329 26.6742 19.5418 26.0653 19.5418 25.3142C19.5418 24.563 18.9329 23.9541 18.1817 23.9541C17.4306 23.9541 16.8217 24.563 16.8217 25.3142C16.8217 26.0653 17.4306 26.6742 18.1817 26.6742Z" fill="white"/>
<path d="M30.0085 38.1781C30.7596 38.1781 31.3686 37.5692 31.3686 36.8181C31.3686 36.0669 30.7596 35.458 30.0085 35.458C29.2574 35.458 28.6484 36.0669 28.6484 36.8181C28.6484 37.5692 29.2574 38.1781 30.0085 38.1781Z" fill="white"/>
<path d="M77.3248 58.7126C77.4542 58.7183 77.5834 58.6977 77.7046 58.6521C77.8259 58.6065 77.9366 58.5369 78.0302 58.4473C78.1238 58.3578 78.1983 58.2502 78.2491 58.1311C78.3 58.012 78.3263 57.8838 78.3263 57.7543C78.3263 57.6247 78.3 57.4965 78.2491 57.3774C78.1983 57.2583 78.1238 57.1507 78.0302 57.0612C77.9366 56.9716 77.8259 56.902 77.7046 56.8564C77.5834 56.8108 77.4542 56.7902 77.3248 56.7959H64.1361V47.3961H77.3248C77.4542 47.4018 77.5834 47.3812 77.7046 47.3356C77.8259 47.29 77.9366 47.2204 78.0302 47.1308C78.1238 47.0413 78.1983 46.9337 78.2491 46.8146C78.3 46.6955 78.3263 46.5673 78.3263 46.4377C78.3263 46.3082 78.3 46.18 78.2491 46.0609C78.1983 45.9418 78.1238 45.8342 78.0302 45.7447C77.9366 45.6551 77.8259 45.5855 77.7046 45.5399C77.5834 45.4943 77.4542 45.4737 77.3248 45.4794H17.8886C17.7592 45.4737 17.63 45.4943 17.5087 45.5399C17.3875 45.5855 17.2767 45.6551 17.1832 45.7447C17.0896 45.8342 17.0151 45.9418 16.9642 46.0609C16.9133 46.18 16.8871 46.3082 16.8871 46.4377C16.8871 46.5673 16.9133 46.6955 16.9642 46.8146C17.0151 46.9337 17.0896 47.0413 17.1832 47.1308C17.2767 47.2204 17.3875 47.29 17.5087 47.3356C17.63 47.3812 17.7592 47.4018 17.8886 47.3961H31.1144V56.7959H17.8886C17.7592 56.7902 17.63 56.8108 17.5087 56.8564C17.3875 56.902 17.2767 56.9716 17.1832 57.0612C17.0896 57.1507 17.0151 57.2583 16.9642 57.3774C16.9133 57.4965 16.8871 57.6247 16.8871 57.7543C16.8871 57.8838 16.9133 58.012 16.9642 58.1311C17.0151 58.2502 17.0896 58.3578 17.1832 58.4473C17.2767 58.5369 17.3875 58.6065 17.5087 58.6521C17.63 58.6977 17.7592 58.7183 17.8886 58.7126H46.6483V68.2683H17.8886C17.7592 68.2626 17.63 68.2831 17.5087 68.3287C17.3875 68.3743 17.2767 68.444 17.1832 68.5335C17.0896 68.6231 17.0151 68.7307 16.9642 68.8498C16.9133 68.9689 16.8871 69.0971 16.8871 69.2266C16.8871 69.3561 16.9133 69.4843 16.9642 69.6034C17.0151 69.7226 17.0896 69.8301 17.1832 69.9197C17.2767 70.0092 17.3875 70.0789 17.5087 70.1245C17.63 70.1701 17.7592 70.1907 17.8886 70.185H46.6483V76.3859C46.6483 76.6364 46.7478 76.8766 46.925 77.0538C47.1021 77.2309 47.3423 77.3304 47.5928 77.3304H47.6225C47.7464 77.3304 47.8691 77.3059 47.9836 77.2584C48.0981 77.211 48.2021 77.1414 48.2896 77.0536C48.3772 76.9659 48.4466 76.8618 48.4938 76.7472C48.5411 76.6326 48.5653 76.5099 48.565 76.3859V70.185H77.3248C77.4542 70.1907 77.5834 70.1701 77.7046 70.1245C77.8259 70.0789 77.9366 70.0092 78.0302 69.9197C78.1238 69.8301 78.1983 69.7226 78.2491 69.6034C78.3 69.4843 78.3263 69.3561 78.3263 69.2266C78.3263 69.0971 78.3 68.9689 78.2491 68.8498C78.1983 68.7307 78.1238 68.6231 78.0302 68.5335C77.9366 68.444 77.8259 68.3743 77.7046 68.3287C77.5834 68.2831 77.4542 68.2626 77.3248 68.2683H48.565V58.7126H77.3248ZM62.2176 56.7959H48.565V47.3961H62.2176V56.7959ZM33.0273 56.7959V47.3961H46.6428V56.7959H33.0273Z" fill="white"/>
</g>
<defs>
<clipPath id="clip0_14_406">
<rect width="95" height="95" fill="white"/>
</clipPath>
</defs>
</svg>
